# xmcd
#
# Track frame offsets:
#	180
#	18935
#	40665
#	67259
#	85462
#	107816
#	138521
#	157031
#	187851
#	208848
#	232470
#	247510
#
# Disc length: 3500 seconds
#
# Revision: 1
# Processed by: cddbd v1.5.2PL0 Copyright (c) Steve Scherf et al.
# Submitted via: audiograbber 1.83.01
#
DISCID=a60daa0c
DTITLE=Diverses - Jazz me Blues
DYEAR=1900
DGENRE=Blues
TTITLE0=Williams - Tishomingo Blues
TTITLE1=Johnny Hodges - Saturday Afernoon Blues
TTITLE2=Oliver and Williams - West End Blues
TTITLE3=Page - Blues for a black Girl
TTITLE4=Williams - Basin Street Blues
TTITLE5=Joe Oliver - Chimes Blues
TTITLE6=Meinken and Ringle - Wabash Blues
TTITLE7=Lyttelton - Blues At Dawn
TTITLE8=Oliver, Armstrong and Melrose - Dippermouth Blues
TTITLE9=Leon Bix Belderbecke - Davenport Blues
TTITLE10=Bloom and Schoebel - Melancholy Blues
TTITLE11=Louis Armstrong - Perdido Street Blues
EXTD=
EXTT0=
EXTT1=
EXTT2=
EXTT3=
EXTT4=
EXTT5=
EXTT6=
EXTT7=
EXTT8=
EXTT9=
EXTT10=
EXTT11=
PLAYORDER=
